<svg id="eSYhuL6aMW41" xmlns="http://www.w3.org/2000/svg" xmlns:xlink="http://www.w3.org/1999/xlink" viewBox="0 0 481.882 481.882" shape-rendering="geometricPrecision" text-rendering="geometricPrecision"><g><g><path d="M403.7,240.935c43.272-46.07,62.627-91.495,45.902-120.465-13.11-22.706-48.114-32.239-96.132-26.191-10.017,1.271-20.47,3.32-31.124,5.805C304.088,39.517,274.412,0,240.945,0c-33.464,0-63.139,39.506-81.4,100.059-21.255-5.015-41.291-7.728-59.141-7.728-33.941,0-57.496,9.732-68.125,28.14-16.725,28.97,2.631,74.397,45.905,120.468-43.275,46.072-62.63,91.501-45.905,120.474c10.687,18.515,34.389,28.159,68.077,28.159c9.893,0,20.65-.831,32.187-2.515c8.735-1.275,17.794-3.153,26.977-5.31c18.26,60.597,47.944,100.137,81.423,100.137c33.467,0,63.143-39.517,81.402-100.085c10.655,2.485,21.109,4.536,31.128,5.807c9.481,1.202,18.452,1.79,26.853,1.79c34.11,0,58.754-9.75,69.275-27.982c16.726-28.978-2.628-74.408-45.901-120.479ZM355.364,109.221c8.908-1.129,17.309-1.677,25.107-1.677c28.147,0,48.426,7.184,56.088,20.456c12.096,20.951-3.841,59.984-43.329,102.222-15.77-15.487-34.148-30.899-54.662-45.654-2.516-25.067-6.655-48.623-12.158-69.971c9.911-2.288,19.64-4.195,28.954-5.376Zm-15.145,95.203c15.989,12.103,30.205,24.383,42.547,36.512-12.341,12.128-26.558,24.41-42.547,36.513.758-11.909,1.152-24.099,1.152-36.508c0-12.411-.394-24.605-1.152-36.517Zm-18.021-31.213c-9.934-6.609-20.294-13.045-31.039-19.247-10.671-6.16-21.458-11.875-32.261-17.212c18.06-7.615,35.816-13.735,52.995-18.48c4.313,16.708,7.824,35.106,10.305,54.939ZM240.945,15.059c24.203,0,50.052,33.357,66.886,88.728-21.614,5.978-44.099,14.215-66.835,24.475-22.763-10.239-45.356-18.461-66.944-24.472c16.836-55.373,42.687-88.731,66.893-88.731Zm-70.947,103.19c17.104,4.76,34.9,10.967,52.962,18.563-10.766,5.339-21.536,10.973-32.236,17.152-10.745,6.203-21.105,12.64-31.039,19.25c2.481-19.844,5.996-38.251,10.313-54.965ZM130.371,372.155c-43.677,6.379-74.673-.291-85.048-18.272-12.097-20.953,3.841-59.991,43.331-102.231c15.77,15.486,34.147,30.898,54.659,45.655c2.512,25.038,6.645,48.569,12.138,69.898-8.585,2.016-17.025,3.774-25.08,4.95Zm11.292-94.706c-15.989-12.104-30.203-24.382-42.545-36.511c12.341-12.128,26.556-24.408,42.546-36.511-.758,11.91-1.153,24.104-1.153,36.514c0,12.409.394,24.6,1.152,36.508Zm1.651-92.879c-20.513,14.755-38.891,30.167-54.66,45.655C49.165,187.985,33.227,148.951,45.324,128c9.831-17.033,35.378-20.61,55.081-20.61c16.598,0,35.25,2.499,55.089,7.135-5.514,21.368-9.661,44.949-12.18,70.045Zm16.37,124.094c9.934,6.61,20.294,13.047,31.04,19.251c10.659,6.155,21.386,11.768,32.11,17.09-17.951,7.518-35.739,13.73-52.868,18.512-4.303-16.684-7.806-35.054-10.282-54.853Zm81.261,158.159c-24.209,0-50.062-33.366-66.899-88.751c21.675-6.012,44.192-14.296,66.852-24.498c22.77,10.281,45.289,18.534,66.933,24.52-16.834,55.373-42.682,88.729-66.886,88.729Zm70.948-103.212c-17.199-4.751-34.976-10.883-53.057-18.51c10.818-5.351,21.623-11.009,32.322-17.186c10.746-6.204,21.107-12.641,31.04-19.251-2.479,19.837-5.992,38.236-10.305,54.947Zm12.389-74.555c-12.62,8.81-26.183,17.461-40.654,25.816-14.045,8.11-28.422,15.49-42.836,22.175-14.17-6.629-28.406-14.014-42.539-22.175-14.471-8.355-28.034-17.006-40.654-25.816-1.32-15.334-2.03-31.405-2.03-48.114c0-16.711.71-32.785,2.031-48.12c12.619-8.809,26.182-17.459,40.653-25.813c14.161-8.178,28.427-15.574,42.626-22.213c14.279,6.65,28.604,14.048,42.749,22.213c14.471,8.353,28.033,17.002,40.653,25.811c1.32,15.337,2.031,31.41,2.031,48.123c0,16.707-.71,32.779-2.03,48.113Zm112.277,64.826c-9.791,16.96-40.151,23.99-81.191,18.78-9.315-1.181-19.044-3.089-28.957-5.378c5.504-21.35,9.644-44.909,12.159-69.978c20.514-14.757,38.892-30.169,54.661-45.657c39.488,42.24,55.425,81.279,43.328,102.233Z"/></g></g><ellipse rx="25" ry="25" transform="translate(187.073574 51.177874)" fill="#fff" stroke="#000" stroke-width="10"/><ellipse rx="25" ry="25" transform="translate(95.687347 381.574232)" fill="#fff" stroke="#000" stroke-width="10"/><ellipse rx="25" ry="25" transform="translate(240.941 240.942)" fill="#fff" stroke="#000" stroke-width="10"/></svg>
